<?xml version="1.0" encoding="UTF-8"?>
<svg xmlns="http://www.w3.org/2000/svg" xmlns:xlink="http://www.w3.org/1999/xlink" width="44px" height="px" viewBox="0 0 44 44" version="1.1">
<g id="surface1">
<path style=" stroke:none;fill-rule:nonzero;fill:rgb(26.666668%,26.666668%,26.666668%);fill-opacity:1;" d="M 28.390625 29.355469 C 28.480469 29.359375 28.574219 29.371094 28.671875 29.371094 C 30.011719 29.371094 31.359375 29.363281 32.703125 29.378906 C 32.996094 29.382812 33.082031 29.28125 33.070312 29 C 33.050781 28.632812 33.066406 28.261719 33.066406 27.808594 C 34.589844 28.929688 36.0625 30.015625 37.574219 31.128906 C 36.074219 32.234375 34.601562 33.320312 33.066406 34.449219 C 33.066406 34.023438 33.066406 33.667969 33.066406 33.316406 C 33.066406 32.859375 33.066406 32.859375 32.621094 32.859375 C 24.03125 32.859375 15.441406 32.859375 6.851562 32.859375 C 6.433594 32.859375 6.433594 32.859375 6.433594 32.441406 C 6.433594 31.535156 6.449219 30.628906 6.429688 29.722656 C 6.421875 29.429688 6.515625 29.363281 6.796875 29.363281 C 11.417969 29.371094 16.035156 29.378906 20.652344 29.367188 C 23.023438 29.359375 24.890625 28.378906 26.125 26.339844 C 28.355469 22.65625 26.03125 17.828125 21.757812 17.207031 C 18.457031 16.726562 15.390625 18.941406 14.832031 22.296875 C 14.773438 22.648438 14.765625 23.007812 14.734375 23.425781 C 15.273438 23.355469 15.761719 23.285156 16.316406 23.210938 C 15.449219 24.890625 14.613281 26.511719 13.761719 28.152344 C 12.460938 26.808594 11.175781 25.488281 9.921875 24.195312 C 10.238281 24.144531 10.65625 24.082031 11.070312 23.996094 C 11.148438 23.980469 11.265625 23.851562 11.261719 23.78125 C 11.238281 22.902344 11.296875 22.03125 11.46875 21.171875 C 11.476562 21.144531 11.464844 21.113281 11.457031 21.0625 C 10.617188 20.921875 9.839844 20.617188 9.132812 20.132812 C 7.410156 18.9375 6.507812 16.71875 6.929688 14.691406 C 7.390625 12.488281 9.054688 10.839844 11.203125 10.433594 C 12.597656 10.167969 13.890625 10.417969 15.09375 11.15625 C 15.304688 11.289062 15.433594 11.304688 15.570312 11.078125 C 15.652344 10.945312 15.773438 10.839844 15.914062 10.675781 C 16.089844 11.382812 16.253906 12.039062 16.417969 12.699219 C 16.472656 12.917969 16.515625 13.144531 16.578125 13.363281 C 16.648438 13.601562 16.578125 13.707031 16.328125 13.691406 C 15.601562 13.640625 14.878906 13.597656 14.15625 13.546875 C 13.976562 13.535156 13.800781 13.515625 13.570312 13.496094 C 13.75 13.269531 13.910156 13.066406 14.089844 12.84375 C 13.699219 12.546875 13.265625 12.398438 12.820312 12.328125 C 10.652344 11.972656 8.742188 13.636719 8.785156 15.832031 C 8.820312 17.511719 10.238281 19.019531 11.914062 19.160156 C 12.132812 19.179688 12.207031 19.070312 12.292969 18.90625 C 13.480469 16.625 15.269531 15.015625 17.703125 14.175781 C 23.332031 12.234375 29.210938 15.714844 30.296875 21.40625 C 30.832031 24.210938 30.222656 26.769531 28.519531 29.066406 C 28.472656 29.128906 28.429688 29.195312 28.390625 29.265625 C 28.382812 29.277344 28.390625 29.300781 28.398438 29.351562 Z M 28.390625 29.355469 "/>
</g>
</svg>
